<?xml version="1.0" encoding="utf-8"?>
<!-- Generator: Adobe Illustrator 16.0.0, SVG Export Plug-In . SVG Version: 6.00 Build 0)  -->
<!DOCTYPE svg PUBLIC "-//W3C//DTD SVG 1.1//EN" "http://www.w3.org/Graphics/SVG/1.1/DTD/svg11.dtd">
<svg version="1.1" id="Layer_1" xmlns="http://www.w3.org/2000/svg" xmlns:xlink="http://www.w3.org/1999/xlink" x="0px" y="0px"
	 width="215.099px" height="151.319px" viewBox="0 0 215.099 151.319" enable-background="new 0 0 215.099 151.319"
	 xml:space="preserve">
<g id="Layer_2">
</g>
<g>
	<g>
		<path fill="none" stroke="#000000" stroke-width="2" stroke-linecap="round" stroke-linejoin="round" stroke-miterlimit="10" d="
			M199.16,14.901"/>
	</g>
</g>
<g>
	<g>
		<path fill="none" stroke="#000000" stroke-width="2" stroke-linecap="round" stroke-linejoin="round" stroke-miterlimit="10" d="
			M143.827,147.567"/>
	</g>
</g>
<path fill="#00AEEF" stroke="#000000" stroke-width="2" stroke-linecap="round" stroke-linejoin="round" stroke-miterlimit="10" d="
	M156.906,36.434"/>
<path fill="#27AAE1" stroke="#000000" stroke-width="2" stroke-linecap="round" stroke-linejoin="round" stroke-miterlimit="10" d="
	M100.212,71.866c0,7.086,0,49.606,0,49.606"/>
<path fill="#27AAE1" stroke="#000000" stroke-width="2" stroke-linecap="round" stroke-linejoin="round" stroke-miterlimit="10" d="
	M100.212,121.473"/>
<path fill="#27AAE1" stroke="#000000" stroke-width="3" stroke-linecap="round" stroke-linejoin="round" stroke-miterlimit="10" d="
	M100.212,50.607l0,85.04c0,0,0,14.173,14.173,14.173s28.346,0,28.346,0s14.174,0.001,14.174-14.173s0-63.78,0-63.78
	s-0.001-7.086,7.086-7.086l21.26,0c28.347,0,28.347-28.347,28.347-28.347s0,0,0-7.086C213.599,1,185.252,1,185.252,1l-56.691,0
	c0,9.449,28.347,18.897,28.347,18.897l-14.174,9.449h35.433c7.087,0,7.087,7.087,0,7.087h-35.434
	c-14.173,0-14.173,14.173-14.173,14.173v77.953V50.607"/>
<path fill="#00AEEF" stroke="#000000" stroke-width="2" stroke-linecap="round" stroke-linejoin="round" stroke-miterlimit="10" d="
	M171.079,1"/>
<line fill="none" stroke="#000000" stroke-width="2" stroke-linecap="round" stroke-linejoin="round" stroke-miterlimit="10" x1="156.907" y1="19.898" x2="142.577" y2="19.898"/>
<line fill="none" stroke="#000000" stroke-width="2" stroke-linecap="round" stroke-linejoin="round" stroke-miterlimit="10" x1="142.577" y1="19.898" x2="136.847" y2="23.62"/>
<line fill="none" stroke="#000000" stroke-width="2" stroke-linecap="round" stroke-linejoin="round" stroke-miterlimit="10" x1="142.577" y1="19.898" x2="136.846" y2="16.178"/>
<g>
	
		<line fill="none" stroke="#000000" stroke-width="2" stroke-linecap="round" stroke-linejoin="round" stroke-miterlimit="10" x1="128.56" y1="128.56" x2="126.335" y2="130.784"/>
	
		<line fill="none" stroke="#000000" stroke-width="2" stroke-linecap="round" stroke-linejoin="round" stroke-miterlimit="10" x1="130.785" y1="130.785" x2="128.56" y2="128.56"/>
</g>
<line fill="none" stroke="#000000" stroke-width="2" stroke-linecap="round" stroke-linejoin="round" stroke-miterlimit="10" x1="149.819" y1="8.087" x2="156.906" y2="8.087"/>
<path fill="#FFDE17" stroke="#000000" stroke-width="2" stroke-linecap="round" stroke-linejoin="round" stroke-miterlimit="10" d="
	M100.212,50.607l0,85.04c0,14.174,14.173,14.173,14.173,14.173s14.172,0,28.346,0s14.174-14.173,14.174-14.173
	s-0.001-56.693,0-63.78s7.086-7.086,7.086-7.086l21.26,0c28.347,0,28.347-28.347,28.347-28.347s0,0,0-7.086
	C213.599,1,185.252,1,185.252,1l-7.087,0c0,0,0,7.086,7.087,7.086c21.26,0,21.26,21.26,21.26,21.26v7.087
	c0,21.26-21.26,21.26-21.26,21.26s-21.26,0-28.347,0s-7.087,7.086-7.087,7.086s0,63.78,0,70.867s-7.086,7.086-7.086,7.086
	s-21.26,0-28.347,0s-7.087-7.086-7.087-7.086s0,0,0-7.087V50.607"/>
<path fill="#FFDE17" stroke="#000000" stroke-width="2" stroke-linecap="round" stroke-linejoin="round" stroke-miterlimit="10" d="
	M100.212,121.473"/>
<g>
	<g id="G">
		
			<path fill="#FFFFFF" stroke="#000000" stroke-width="3" stroke-linecap="round" stroke-linejoin="round" stroke-miterlimit="10" d="
			M213.599,142.732V107.3l-0.001-35.434c0-7.087-7.087-7.086-7.087-7.086h-42.519c-7.087,0-7.086,7.086-7.086,7.086l-0.001,70.866
			c0,0,0.001,7.087,7.087,7.087s42.52,0,42.52,0S213.599,149.818,213.599,142.732z"/>
	</g>
	
		<polyline fill="#FFFFFF" stroke="#000000" stroke-width="3" stroke-linecap="round" stroke-linejoin="round" stroke-miterlimit="10" points="
		213.598,93.126 178.166,93.126 178.166,121.474 192.339,121.474 	"/>
</g>
<path id="L" fill="#FFFFFF" stroke="#000000" stroke-width="3" stroke-linecap="round" stroke-linejoin="round" stroke-miterlimit="10" d="
	M100.213,121.472H78.952c0,0-7.086,0.001-7.086-7.086l0.001-77.952H43.52l0,99.212c0,0,0,14.174,14.173,14.174h42.521V121.472z"/>
<path fill="#27AAE1" stroke="#000000" stroke-width="3" stroke-linecap="round" stroke-linejoin="round" stroke-miterlimit="10" d="
	M22.259,107.299c0,0,0,14.173-21.259,14.174h28.346c0,0,14.173,0,14.173-14.174V57.695c0-7.087,7.086-7.087,7.086-7.087h21.26
	V36.435c0,0-14.173,0-28.346,0c-21.261,0-21.261,21.26-21.261,21.26V107.299z"/>
<g id="P">
	
		<path fill="#FFFFFF" stroke="#000000" stroke-width="3" stroke-linecap="round" stroke-linejoin="round" stroke-miterlimit="10" d="
		M100.211,121.473V93.126l14.173,0c0,0,14.172,0,14.174-14.172c0,0,0-28.346,0-28.348c-0.002-14.172-14.175-14.172-14.175-14.172
		H71.865v85.038H100.211z"/>
	<g>
		
			<line fill="#FFFFFF" stroke="#000000" stroke-width="3" stroke-linecap="round" stroke-linejoin="round" stroke-miterlimit="10" x1="94.544" y1="64.78" x2="105.882" y2="64.78"/>
		
			<line fill="#FFFFFF" stroke="#000000" stroke-width="3" stroke-linecap="round" stroke-linejoin="round" stroke-miterlimit="10" x1="100.213" y1="59.11" x2="100.213" y2="70.449"/>
	</g>
</g>
<path display="none" fill="#27AAE1" stroke="#000000" stroke-width="2" stroke-linecap="round" stroke-linejoin="round" stroke-miterlimit="10" d="
	M78.952,135.646c-7.085-0.001-7.086-7.086-7.086-7.086v-21.26V36.434H57.693c0,0-14.173,0-14.173,14.173c0,7.087,0,85.039,0,85.039
	s0,14.174,14.173,14.174h35.433c0,0,7.085-0.001,7.086-7.087s0-21.26,0-21.26s0-7.087-7.086-7.087s-21.26,0-21.26-7.086v21.26
	C71.866,135.646,78.952,135.646,78.952,135.646z"/>
<path fill="#FFDE17" stroke="#000000" stroke-width="2" stroke-linecap="round" stroke-linejoin="round" stroke-miterlimit="10" d="
	M36.432,107.299V57.694c0-14.173,14.173-14.174,14.173-14.174h21.26v7.087h-21.26c-7.086,0-7.086,7.087-7.086,7.087
	s0,49.605,0,49.604c0,14.174-14.173,14.174-14.173,14.174h-7.086C22.259,121.473,36.432,121.472,36.432,107.299z"/>
<path display="none" fill="#FFDE17" stroke="#000000" stroke-width="2" stroke-linecap="round" stroke-linejoin="round" stroke-miterlimit="10" d="
	M71.866,121.473c0,0,7.087,0.001,7.087,7.087s0,7.086,0,7.086s-7.086,0.001-7.086-7.086S71.866,121.473,71.866,121.473z"/>
<path display="none" fill="none" stroke="#000000" stroke-width="2" stroke-linecap="round" stroke-linejoin="round" stroke-miterlimit="10" d="
	M78.952,135.646"/>
<path display="none" fill="#FFDE17" stroke="#000000" stroke-width="2" stroke-linecap="round" stroke-linejoin="round" stroke-miterlimit="10" d="
	M78.952,135.646c-14.173,0-14.173-9.162-14.173-14.173c0-12.401,0-42.52,0-49.606s7.086-7.087,7.086-7.087v63.78
	C71.866,135.646,78.952,135.646,78.952,135.646z"/>
<path display="none" fill="#27AAE1" stroke="#000000" stroke-width="2" stroke-linecap="round" stroke-linejoin="round" stroke-miterlimit="10" d="
	M43.52,114.386c0,0-21.26-14.173-21.26-28.346c0-7.086,0-7.086,0-7.086s14.173,21.26,21.26,21.26"/>
<path display="none" fill="#FFDE17" stroke="#000000" stroke-width="2" stroke-linecap="round" stroke-linejoin="round" stroke-miterlimit="10" d="
	M43.52,107.299c-14.173-7.086-21.26-21.26-21.26-21.26c0,14.173,21.26,28.346,21.26,28.346V107.299z"/>
</svg>
