<?xml version="1.0" encoding="utf-8"?>
<!-- Generator: Adobe Illustrator 16.0.0, SVG Export Plug-In . SVG Version: 6.00 Build 0)  -->
<!DOCTYPE svg PUBLIC "-//W3C//DTD SVG 1.1//EN" "http://www.w3.org/Graphics/SVG/1.1/DTD/svg11.dtd">
<svg version="1.1" id="Layer_1" xmlns="http://www.w3.org/2000/svg" xmlns:xlink="http://www.w3.org/1999/xlink" x="0px" y="0px"
	 width="215.099px" height="151.319px" viewBox="0 0 215.099 151.319" enable-background="new 0 0 215.099 151.319"
	 xml:space="preserve">
<g id="Layer_2">
</g>
<polygon id="L" fill="#FFFFFF" stroke="#000000" stroke-width="3" stroke-linecap="round" stroke-linejoin="round" stroke-miterlimit="10" points="
	100.213,121.472 71.867,121.472 71.867,36.434 43.52,36.434 43.52,149.819 100.213,149.819 "/>
<g>
	<g>
		<path fill="none" stroke="#000000" stroke-linecap="round" stroke-linejoin="round" stroke-miterlimit="10" d="M199.16,14.901"/>
	</g>
</g>
<g>
	<g>
		<path fill="none" stroke="#000000" stroke-linecap="round" stroke-linejoin="round" stroke-miterlimit="10" d="M143.827,147.567"
			/>
	</g>
</g>
<path fill="#00AEEF" stroke="#000000" stroke-width="2" stroke-linecap="round" stroke-linejoin="round" stroke-miterlimit="10" d="
	M156.906,36.434"/>
<path fill="#27AAE1" stroke="#000000" stroke-width="2" stroke-linecap="round" stroke-linejoin="round" stroke-miterlimit="10" d="
	M15.174,86.04l0,7.086c0,0,0,28.347,28.347,28.347c14.173,0,49.606,0,49.606,0s7.086,0,7.086,7.087s0,7.087,0,7.087
	s0,14.173,14.173,14.173s28.346,0,28.346,0s14.174,0.001,14.174-14.173s0-63.78,0-63.78s-0.001-7.086,7.086-7.086l21.26,0
	c28.347,0,28.347-28.347,28.347-28.347s0,0,0-7.086C213.599,1,185.252,1,185.252,1l-56.691,0c0,9.449,28.347,18.897,28.347,18.897
	l-14.174,9.449h35.433c7.087,0,7.087,7.087,0,7.087h-35.434c-14.173,0-14.173,14.173-14.173,14.173v77.953v-7.087c0,0,0,0,0-14.173
	c0-14.173-14.173-14.174-14.173-14.174h-14.173H50.606c0,0-7.086,0-7.086-7.086V57.693c0,0,0-14.173-14.173-14.173S1,43.52,1,43.52
	l14.173,14.173L15.174,86.04z"/>
<path fill="#00AEEF" stroke="#000000" stroke-width="2" stroke-linecap="round" stroke-linejoin="round" stroke-miterlimit="10" d="
	M171.079,1"/>
<line fill="none" stroke="#000000" stroke-width="2" stroke-linecap="round" stroke-linejoin="round" stroke-miterlimit="10" x1="156.907" y1="19.898" x2="142.577" y2="19.898"/>
<line fill="none" stroke="#000000" stroke-width="2" stroke-linecap="round" stroke-linejoin="round" stroke-miterlimit="10" x1="142.577" y1="19.898" x2="136.847" y2="23.62"/>
<line fill="none" stroke="#000000" stroke-width="2" stroke-linecap="round" stroke-linejoin="round" stroke-miterlimit="10" x1="142.577" y1="19.898" x2="136.846" y2="16.178"/>
<line fill="none" stroke="#000000" stroke-width="2" stroke-linecap="round" stroke-linejoin="round" stroke-miterlimit="10" x1="128.56" y1="128.56" x2="126.335" y2="130.784"/>
<line fill="none" stroke="#000000" stroke-width="2" stroke-linecap="round" stroke-linejoin="round" stroke-miterlimit="10" x1="128.56" y1="128.56" x2="130.785" y2="130.785"/>
<line fill="none" stroke="#000000" stroke-width="3" stroke-linecap="round" stroke-linejoin="round" stroke-miterlimit="10" x1="149.819" y1="8.087" x2="156.906" y2="8.087"/>
<path fill="#FFDE17" stroke="#000000" stroke-width="2" stroke-linecap="round" stroke-linejoin="round" stroke-miterlimit="10" d="
	M15.173,57.693c0,0,7.086,0,7.086,7.087v28.347c0,0,0,21.26,21.26,21.26c15.737,0,8.651,0,49.606,0c0,0,14.173,0,14.173,14.173
	c0,7.087,0,7.087,0,7.087s0,7.086,7.087,7.086s28.347,0,28.347,0s7.086,0.001,7.086-7.086s0-70.867,0-70.867s0-7.086,7.087-7.086
	s28.347,0,28.347,0s21.26,0,21.26-21.26v-7.087c0,0,0-21.26-21.26-21.26c-7.087,0-7.087-7.086-7.087-7.086l7.087,0
	c0,0,28.347,0,28.347,28.347c0,7.086,0,7.086,0,7.086s0,28.347-28.347,28.347l-21.26,0c0,0-7.085,0-7.086,7.086s0,63.78,0,63.78
	s0,14.173-14.174,14.173s-28.346,0-28.346,0s-14.173,0.001-14.173-14.173s0-14.174-14.174-14.174s-42.519,0-42.519,0
	s-28.346-0.001-28.347-28.347C15.173,64.78,15.173,57.693,15.173,57.693z"/>
<g id="G">
	
		<path fill="#FFFFFF" stroke="#000000" stroke-width="3" stroke-linecap="round" stroke-linejoin="round" stroke-miterlimit="10" d="
		M213.599,142.732V107.3V64.78h-56.693v77.952c0,0,0.001,7.087,7.087,7.087s42.52,0,42.52,0S213.599,149.818,213.599,142.732z"/>
</g>
<g id="P">
	
		<polygon fill="#FFFFFF" stroke="#000000" stroke-width="3" stroke-linecap="round" stroke-linejoin="round" stroke-miterlimit="10" points="
		100.213,121.472 100.213,93.125 128.561,93.125 128.561,36.434 71.867,36.434 71.867,121.472 	"/>
	<g>
		
			<line fill="#FFFFFF" stroke="#000000" stroke-width="3" stroke-linecap="round" stroke-linejoin="round" stroke-miterlimit="10" x1="94.544" y1="64.78" x2="105.882" y2="64.78"/>
		
			<line fill="#FFFFFF" stroke="#000000" stroke-width="3" stroke-linecap="round" stroke-linejoin="round" stroke-miterlimit="10" x1="100.213" y1="59.11" x2="100.213" y2="70.449"/>
	</g>
</g>
<polyline fill="#FFFFFF" stroke="#000000" stroke-width="3" stroke-linecap="round" stroke-linejoin="round" stroke-miterlimit="10" points="
	213.598,93.126 178.166,93.126 178.166,121.474 192.339,121.474 192.339,107.3 "/>
</svg>
